<?xml version="1.0" encoding="UTF-8"?>
<svg width="256px" height="256px" viewBox="0 0 256 256" version="1.1" xmlns="http://www.w3.org/2000/svg" xmlns:xlink="http://www.w3.org/1999/xlink">
    <!-- Generator: Sketch 44.1 (41455) - http://www.bohemiancoding.com/sketch -->
    <title>Scanning</title>
    <desc>Created with Sketch.</desc>
    <defs></defs>
    <g id="Page-1" stroke="none" stroke-width="1" fill="none" fill-rule="evenodd">
        <g id="Scanning">
            <path d="M128,64 L128,96 L170.666667,53.3333333 L128,10.6666667 L128,42.6666667 C80.8533333,42.6666667 42.6666667,80.8533333 42.6666667,128 C42.6666667,144.746667 47.5733333,160.32 55.8933333,173.44 L71.4666667,157.866667 C66.6666667,149.013333 64,138.773333 64,128 C64,92.6933333 92.6933333,64 128,64 Z M200.106667,82.56 L184.533333,98.1333333 C189.226667,107.093333 192,117.226667 192,128 C192,163.306667 163.306667,192 128,192 L128,160 L85.3333333,202.666667 L128,245.333333 L128,213.333333 C175.146667,213.333333 213.333333,175.146667 213.333333,128 C213.333333,111.253333 208.426667,95.68 200.106667,82.56 L200.106667,82.56 Z" id="Shape" fill="#53C3FF" fill-rule="nonzero"></path>
            <polygon id="Shape" points="0 0 256 0 256 256 0 256"></polygon>
        </g>
    </g>
</svg>