<svg width="256px" height="256px" viewBox="0 0 256 256">
    <g stroke="none" stroke-width="1" fill="none" fill-rule="evenodd">
        <g>
            <path d="M128,21.3333333 C69.0133333,21.3333333 21.3333333,69.0133333 21.3333333,128 C21.3333333,186.986667 69.0133333,234.666667 128,234.666667 C186.986667,234.666667 234.666667,186.986667 234.666667,128 C234.666667,69.0133333 186.986667,21.3333333 128,21.3333333 Z M181.333333,166.293333 L166.293333,181.333333 L128,143.04 L89.7066667,181.333333 L74.6666667,166.293333 L112.96,128 L74.6666667,89.7066667 L89.7066667,74.6666667 L128,112.96 L166.293333,74.6666667 L181.333333,89.7066667 L143.04,128 L181.333333,166.293333 Z"
                fill="#FF5353" fill-rule="nonzero"></path>
            <polygon points="0 0 256 0 256 256 0 256"></polygon>
        </g>
    </g>
</svg>